<svg width="24" height="25" viewBox="0 0 24 25" fill="none" xmlns="http://www.w3.org/2000/svg">
<mask id="mask0_309_663" style="mask-type:alpha" maskUnits="userSpaceOnUse" x="0" y="0" width="24" height="25">
<rect y="0.333336" width="24" height="24" fill="#D9D9D9"/>
</mask>
<g mask="url(#mask0_309_663)">
<path d="M12 20.3333C11.45 20.3333 10.9792 20.1375 10.5875 19.7458C10.1958 19.3542 10 18.8833 10 18.3333C10 17.7833 10.1958 17.3125 10.5875 16.9208C10.9792 16.5292 11.45 16.3333 12 16.3333C12.55 16.3333 13.0208 16.5292 13.4125 16.9208C13.8042 17.3125 14 17.7833 14 18.3333C14 18.8833 13.8042 19.3542 13.4125 19.7458C13.0208 20.1375 12.55 20.3333 12 20.3333ZM12 14.3333C11.45 14.3333 10.9792 14.1375 10.5875 13.7458C10.1958 13.3542 10 12.8833 10 12.3333C10 11.7833 10.1958 11.3125 10.5875 10.9208C10.9792 10.5292 11.45 10.3333 12 10.3333C12.55 10.3333 13.0208 10.5292 13.4125 10.9208C13.8042 11.3125 14 11.7833 14 12.3333C14 12.8833 13.8042 13.3542 13.4125 13.7458C13.0208 14.1375 12.55 14.3333 12 14.3333ZM12 8.33334C11.45 8.33334 10.9792 8.1375 10.5875 7.74584C10.1958 7.35417 10 6.88334 10 6.33334C10 5.78334 10.1958 5.3125 10.5875 4.92084C10.9792 4.52917 11.45 4.33334 12 4.33334C12.55 4.33334 13.0208 4.52917 13.4125 4.92084C13.8042 5.3125 14 5.78334 14 6.33334C14 6.88334 13.8042 7.35417 13.4125 7.74584C13.0208 8.1375 12.55 8.33334 12 8.33334Z" fill="#1C1B1F"/>
</g>
</svg>
